<?xml version="1.0" encoding="utf-8"?>
<!-- Generator: Adobe Illustrator 21.0.0, SVG Export Plug-In . SVG Version: 6.00 Build 0)  -->
<svg version="1.1" id="Layer_1" xmlns="http://www.w3.org/2000/svg" xmlns:xlink="http://www.w3.org/1999/xlink" x="0px" y="0px"
	 viewBox="0 0 60 60" style="enable-background:new 0 0 60 60;" xml:space="preserve">
<style type="text/css">
	.st0{fill:none;stroke:#B3B3B3;stroke-width:1.44;stroke-linecap:round;stroke-linejoin:round;stroke-miterlimit:22.9256;}
</style>
<g>
	<path class="st0" d="M42.6,30.8c3.2,8.4,6.6,9.7,6.4,13.9c-0.3,8.2-13,8.2-12.9,0C36.2,40.9,39.4,39.2,42.6,30.8L42.6,30.8z"/>
	<path class="st0" d="M32.7,43.9c-1.3,0.3-2.7,0.5-4.1,0.5c-9.7,0-17.6-7.9-17.6-17.6C11,17,18.9,9.1,28.6,9.1
		c9.7,0,17.6,7.9,17.6,17.6c0,1.1-0.1,2.1-0.3,3.1 M20.4,33.5c-2.7-3.3-3.2-8-1.1-11.7c0.3-0.6,0.7-1.2,1.1-1.7
		c3.7-4.5,10.4-5.2,14.9-1.5s5.2,10.4,1.5,14.9l0,0 M28.6,24.9c1,0,1.9,0.8,1.9,1.9c0,1-0.8,1.9-1.9,1.9c-1,0-1.9-0.8-1.9-1.9
		C26.8,25.7,27.6,24.9,28.6,24.9L28.6,24.9z M35.3,14.8l-5.7,10.2 M27.6,28.6l-1.3,2.3 M28.6,13.3v2.8 M40.3,20l-2.5,1.4 M42.1,26.8
		h-2.8 M21.9,15.1l1.4,2.5 M17,20l2.5,1.4 M15.2,26.8H18 M17,33.5l2.5-1.4"/>
	<path class="st0" d="M46.1,44.3c0,2.7-2.6,3.8-4.7,3.2"/>
</g>
</svg>
