<?xml version="1.0" encoding="utf-8"?>
<!-- Generator: Adobe Illustrator 21.0.0, SVG Export Plug-In . SVG Version: 6.00 Build 0)  -->
<svg version="1.1" id="Layer_1" xmlns="http://www.w3.org/2000/svg" xmlns:xlink="http://www.w3.org/1999/xlink" x="0px" y="0px"
	 viewBox="0 0 60 60" style="enable-background:new 0 0 60 60;" xml:space="preserve">
<style type="text/css">
	.st0{fill:none;stroke:#B3B3B3;stroke-width:1.44;stroke-linecap:round;stroke-linejoin:round;stroke-miterlimit:22.9256;}
</style>
<g>
	<path class="st0" d="M27,10.9L27,10.9c2.2,0,3.9,1.7,3.9,3.8v17.5c2.9,1.4,5,4.5,5,7.9c0,4.9-4,8.8-8.8,8.8c-4.9,0-8.8-4-8.8-8.8
		c0-3.5,2-6.5,5-7.9V14.8C23.2,12.7,24.9,10.9,27,10.9L27,10.9z M27.1,36.6c2,0,3.6,1.6,3.6,3.6c0,2-1.6,3.6-3.6,3.6
		c-2,0-3.6-1.6-3.6-3.6C23.4,38.2,25.1,36.6,27.1,36.6L27.1,36.6z M27.1,36.2V20.4 M41.8,14.8h-6.4 M39.1,18.7h-3.7 M41.8,22.5h-6.4
		 M39.1,26.3h-3.7 M41.8,30.2h-6.4"/>
</g>
</svg>
