<?xml version="1.0" encoding="utf-8"?>
<!-- Generator: Adobe Illustrator 21.0.0, SVG Export Plug-In . SVG Version: 6.00 Build 0)  -->
<svg version="1.1" id="Layer_1" xmlns="http://www.w3.org/2000/svg" xmlns:xlink="http://www.w3.org/1999/xlink" x="0px" y="0px"
	 viewBox="0 0 100 100" style="enable-background:new 0 0 100 100;" xml:space="preserve">
<style type="text/css">
	.st0{fill:url(#SVGID_1_);}
	.st1{fill:#FFFFFF;}
	.st2{fill:url(#SVGID_2_);}
</style>
<g id="Party_Cloudy">
	<linearGradient id="SVGID_1_" gradientUnits="userSpaceOnUse" x1="55.6986" y1="51.9997" x2="74.0313" y2="33.667">
		<stop  offset="0" style="stop-color:#FCB627"/>
		<stop  offset="1" style="stop-color:#FFCD22"/>
	</linearGradient>
	<circle class="st0" cx="64.9" cy="42.8" r="13"/>
	<path class="st1" d="M62.5,70.1c5.9,0,10.7-4.8,10.7-10.7s-4.8-10.7-10.7-10.7c0,0-0.1,0-0.1,0c-0.9-8.5-8.2-15.1-16.9-15.1
		c-6.9,0-12.9,4.1-15.5,10c-0.1,0-0.2,0-0.3,0c-7.3,0-13.2,5.9-13.2,13.2c0,7.3,5.9,13.2,13.2,13.2"/>
	<linearGradient id="SVGID_2_" gradientUnits="userSpaceOnUse" x1="55.2875" y1="72.6875" x2="75.6125" y2="52.3624">
		<stop  offset="0" style="stop-color:#CFE7F7"/>
		<stop  offset="1" style="stop-color:#E1EDF8"/>
	</linearGradient>
	<path class="st2" d="M76.8,70.1c3.7,0,6.7-3,6.7-6.7c0-3.7-3-6.7-6.7-6.7c0,0,0,0-0.1,0c-0.6-5.3-5.1-9.5-10.6-9.5
		c-4.3,0-8.1,2.6-9.8,6.3c-0.1,0-0.1,0-0.2,0c-4.6,0-8.3,3.7-8.3,8.3c0,4.6,3.7,8.3,8.3,8.3"/>
</g>
</svg>
